<svg width="680" height="470" viewBox="0 0 680 470" xmlns="http://www.w3.org/2000/svg" font-family="Arial, sans-serif">
<defs>
<marker id="arrow" viewBox="0 0 10 10" refX="8" refY="5" markerWidth="6" markerHeight="6" orient="auto-start-reverse">
<path d="M2 1L8 5L2 9" fill="none" stroke="#5F5E5A" stroke-width="1.5" stroke-linecap="round" stroke-linejoin="round"/>
</marker>
</defs>
<rect width="680" height="470" fill="#FFFFFF"/>

<!-- Tier 1: Frontend -->
<rect x="250" y="30" width="180" height="44" rx="8" fill="#E6F1FB" stroke="#185FA5" stroke-width="1"/>
<text x="340" y="47" text-anchor="middle" font-size="14" font-weight="600" fill="#0C447C">Frontend</text>
<text x="340" y="63" text-anchor="middle" font-size="11" fill="#185FA5">React + MUI, localhost:3000</text>

<line x1="340" y1="74" x2="340" y2="104" stroke="#5F5E5A" stroke-width="1.5" marker-end="url(#arrow)"/>

<!-- Tier 2: API / JWT -->
<rect x="250" y="106" width="180" height="44" rx="8" fill="#EEEDFE" stroke="#534AB7" stroke-width="1"/>
<text x="340" y="123" text-anchor="middle" font-size="14" font-weight="600" fill="#3C3489">API gateway</text>
<text x="340" y="139" text-anchor="middle" font-size="11" fill="#534AB7">config/urls.py, SimpleJWT auth</text>

<!-- Tier 3: 4 Django apps -->
<g stroke="#0F6E56" stroke-width="1" fill="#E1F5EE">
<rect x="30" y="190" width="140" height="56" rx="8"/>
<rect x="190" y="190" width="140" height="56" rx="8"/>
<rect x="350" y="190" width="140" height="56" rx="8"/>
<rect x="510" y="190" width="140" height="56" rx="8"/>
</g>
<g font-size="13" font-weight="600" fill="#085041" text-anchor="middle">
<text x="100" y="215">accounts</text>
<text x="260" y="215">students</text>
<text x="420" y="215">courses</text>
<text x="580" y="215">attendance</text>
</g>
<g font-size="10" fill="#0F6E56" text-anchor="middle">
<text x="100" y="232">User, roles, JWT</text>
<text x="260" y="232">Student CRUD, face enc.</text>
<text x="420" y="232">Course, Enrollment</text>
<text x="580" y="232">Attendance, reports</text>
</g>

<!-- arrows API -> apps -->
<path d="M300 150 L300 170 L100 170 L100 188" fill="none" stroke="#5F5E5A" stroke-width="1.2" marker-end="url(#arrow)"/>
<path d="M320 150 L320 170 L260 170 L260 188" fill="none" stroke="#5F5E5A" stroke-width="1.2" marker-end="url(#arrow)"/>
<path d="M360 150 L360 170 L420 170 L420 188" fill="none" stroke="#5F5E5A" stroke-width="1.2" marker-end="url(#arrow)"/>
<path d="M380 150 L380 170 L580 170 L580 188" fill="none" stroke="#5F5E5A" stroke-width="1.2" marker-end="url(#arrow)"/>

<!-- arrows apps -> data layer -->
<line x1="100" y1="246" x2="100" y2="276" stroke="#5F5E5A" stroke-width="1.2" marker-end="url(#arrow)"/>
<line x1="260" y1="246" x2="260" y2="276" stroke="#5F5E5A" stroke-width="1.2" marker-end="url(#arrow)"/>
<line x1="420" y1="246" x2="420" y2="276" stroke="#5F5E5A" stroke-width="1.2" marker-end="url(#arrow)"/>
<line x1="580" y1="246" x2="580" y2="276" stroke="#5F5E5A" stroke-width="1.2" marker-end="url(#arrow)"/>

<!-- Data & external layer container -->
<rect x="20" y="278" width="640" height="150" rx="16" fill="#F1EFE8" stroke="#5F5E5A" stroke-width="1"/>
<text x="40" y="302" font-size="13" font-weight="600" fill="#2C2C2A">Data layer &amp; external services</text>

<g stroke="#378ADD" stroke-width="1" fill="#E6F1FB">
<rect x="40" y="316" width="140" height="90" rx="8"/>
</g>
<text x="110" y="345" text-anchor="middle" font-size="12" font-weight="600" fill="#0C447C">SQLite /</text>
<text x="110" y="360" text-anchor="middle" font-size="12" font-weight="600" fill="#0C447C">PostgreSQL</text>
<text x="110" y="378" text-anchor="middle" font-size="10" fill="#185FA5">dev / planned prod</text>

<g stroke="#639922" stroke-width="1" fill="#EAF3DE">
<rect x="200" y="316" width="140" height="90" rx="8"/>
</g>
<text x="270" y="345" text-anchor="middle" font-size="12" font-weight="600" fill="#27500A">Face encodings</text>
<text x="270" y="362" text-anchor="middle" font-size="10" fill="#3B6D11">Student.face_encoding</text>
<text x="270" y="376" text-anchor="middle" font-size="10" fill="#3B6D11">plain TextField</text>

<g stroke="#BA7517" stroke-width="1" fill="#FAEEDA">
<rect x="360" y="316" width="140" height="90" rx="8"/>
</g>
<text x="430" y="345" text-anchor="middle" font-size="12" font-weight="600" fill="#633806">OpenCV</text>
<text x="430" y="362" text-anchor="middle" font-size="10" fill="#854F0B">face recognition</text>

<g stroke="#D85A30" stroke-width="1" fill="#FAECE7">
<rect x="520" y="316" width="140" height="90" rx="8"/>
</g>
<text x="590" y="345" text-anchor="middle" font-size="12" font-weight="600" fill="#712B13">reportlab</text>
<text x="590" y="362" text-anchor="middle" font-size="10" fill="#993C1D">PDF reports</text>

<text x="340" y="450" text-anchor="middle" font-size="11" fill="#5F5E5A">Attendance Management System — module architecture (Day 4)</text>
</svg>
